<svg width="648" height="648" viewBox="0 0 648 648" fill="none" xmlns="http://www.w3.org/2000/svg">
<path d="M429.937 377.486C419.831 399.78 418.019 423.036 418.685 446.702C419.074 460.518 420.058 474.362 419.573 488.151C418.044 531.539 399.347 566.435 365.541 593.285C360.463 597.318 354.287 599.969 347.503 603.908C347.204 600.489 346.922 598.764 346.922 597.038C346.926 539.54 346.448 482.036 347.154 424.546C347.659 383.41 362.23 347.514 391.454 317.996C407.281 302.009 423.249 286.152 438.657 269.77C442.854 265.309 446.476 259.527 448.235 253.709C452.526 239.516 444.75 227.552 429.944 224.279C422.642 222.664 415.147 221.937 407.821 220.414C387.554 216.202 376.015 202.092 368.034 184.356C362.977 173.117 363.085 172.822 373.106 165.52C384.692 157.078 393.262 146.565 399.15 133.357C405.746 118.563 418.339 109.588 432.985 103.888C442.39 100.228 452.316 97.8262 462.126 95.3255C465.589 94.443 467.157 93.4435 467.169 89.5462C467.218 73.8883 467.631 58.2314 467.922 42.5744C467.951 40.9638 468.063 39.3546 468.216 36C476.17 40.5679 483.619 43.918 490.005 48.6901C507.9 62.0619 521.961 78.7392 531.209 99.2948C532.21 101.52 534.2 103.732 536.307 104.963C575.202 127.68 593.18 172.221 584.912 215.616C576.998 257.155 551.366 284.719 514.32 302.768C494.362 312.491 475.135 323.298 458.741 338.498C446.793 349.574 437.043 362.333 429.937 377.486Z" fill="#279570"/>
<path d="M439.69 149.435C435.551 149.559 431.776 149.682 428 149.805C427.798 149.342 427.596 148.879 427.393 148.416C432.222 143.587 436.328 137.326 442.118 134.4C446.452 132.21 452.958 134.318 458.826 135.365C452.513 140.247 450.233 149.977 439.69 149.435Z" fill="#F6C87F"/>
<path d="M439.797 432.429C440.892 417.158 443.205 402.674 448.833 388.764C457.619 367.054 472.045 349.881 491.275 337.094C505.234 327.812 520.296 320.201 534.767 311.676C555.335 299.56 572.613 283.908 584.392 262.945C597.501 239.615 601.907 214.479 598.987 187.863C597.652 175.692 595.071 163.959 590.426 152.655C590.085 151.825 590.033 150.877 589.847 149.984C590.271 149.774 590.695 149.564 591.119 149.354C597.599 160.316 604.531 171.04 610.468 182.29C623.134 206.29 631.428 231.845 636.033 258.598C640.032 281.827 640.449 305.143 638.906 328.643C637.227 354.219 631.835 378.935 623.526 403.054C612.213 435.896 595.654 465.939 574.122 493.193C546.605 528.021 512.912 555.378 473.768 576.231C441.885 593.217 407.897 603.698 372.478 609.894C365.977 611.031 359.335 611.364 352.459 611.282C356.767 609.17 361.055 607.015 365.387 604.952C402.858 587.108 426.822 558.007 437.101 517.906C439.307 509.299 440.416 500.202 440.535 491.311C440.795 471.848 440.097 452.372 439.797 432.429Z" fill="#F6C87F"/>
<path d="M40.4414 175.053C41.8245 140.209 54.7075 110.162 79.3178 85.6181C108.463 56.5519 143.879 42.7537 185.168 45.4581C202.798 46.6128 219.586 51.1834 234.852 60.5991C238.492 62.8439 239.574 65.106 237.88 69.1285C235.496 74.7929 233.479 80.616 231.427 86.4145C230.317 89.5508 228.837 90.1059 225.46 89.0312C213.395 85.1913 201.128 81.311 188.285 83.9887C182.059 85.2868 176.152 88.1128 170.465 90.1184C164.37 87.2293 158.258 83.2487 151.558 81.3848C137.991 77.6105 126.578 82.2043 118.053 93.2707C109.754 104.043 109.761 115.782 115.635 127.556C120.297 136.902 127.721 143.809 136.828 148.828C139.59 150.35 140.865 152.078 140.739 155.47C139.716 182.927 149.357 206.631 168.213 226.071C187.919 246.387 208.856 265.504 229 285.403C242.011 298.257 255.767 310.626 267.046 324.905C285.054 347.702 293.683 374.944 298.574 403.34C302.618 426.816 301.985 450.444 300.443 474.081C300.365 475.276 299.981 476.451 299.451 479.048C296.605 470.235 294.507 462.759 291.799 455.511C275.373 411.548 245.884 378.406 206.656 353.457C183.551 338.762 158.939 327.077 133.045 317.246C132.694 317.189 132.734 317.192 132.556 316.92C131.806 316.344 131.235 316.039 130.415 315.524C118.293 307.443 105.71 300.448 94.6994 291.515C73.2675 274.126 57.5949 252.285 48.4386 225.956C42.6902 209.426 40.4403 192.439 40.4414 175.053Z" fill="#279570"/>
<path d="M40.2039 175.312C40.4419 192.439 42.6918 209.426 48.4401 225.955C57.5965 252.284 73.2691 274.126 94.701 291.515C105.711 300.448 118.295 307.442 130.538 315.852C131.518 316.658 132.127 316.925 132.736 317.192C132.736 317.192 132.696 317.189 132.683 317.173C139.143 322.209 145.356 327.644 152.137 332.241C172.492 346.038 193.728 358.628 213.391 373.331C237.559 391.402 255.7 414.948 269.261 442.017C282.132 467.71 289.75 495.026 294.292 523.186C296.664 537.897 297.574 552.866 298.673 567.753C299.406 577.694 299.315 587.695 299.577 597.669C299.62 599.281 299.583 600.896 299.583 604.229C291.535 599.407 284.423 595.593 277.786 591.08C261.383 579.928 246.12 567.322 232.297 553.088C214.592 534.855 199.462 514.639 187.744 492.055C179.942 477.018 173.319 461.357 165.235 446.483C153.977 425.765 137.231 409.578 120.2 393.542C106.311 380.463 92.8452 366.743 80.6759 352.075C63.2266 331.044 50.0261 307.154 42.4261 280.85C38.0353 265.654 35.9459 249.723 33.686 233.999C31.0756 215.836 33.554 197.893 38.2436 180.246C38.6681 178.648 39.3841 177.128 40.2039 175.312Z" fill="#F6C87F"/>
<path d="M267.998 599.97C277.184 603.776 286.021 607.44 294.987 611.156C100.062 595.3 -32.0674 403.456 20.6624 224.834C20.9401 245.993 23.4153 266.206 29.0021 286.018C39.6446 323.76 58.482 356.896 85.2138 385.451C94.4119 395.277 104.408 404.391 114.408 413.422C136.749 433.599 152.933 457.721 162.977 486.134C181.631 538.908 217.741 575.755 267.998 599.97Z" fill="#279570"/>
<path d="M301.966 195.445C299.128 201.802 296.535 208.288 293.282 214.424C292.476 215.943 289.543 217.085 287.568 217.115C273.077 217.335 258.58 217.228 244.086 217.225C242.269 217.225 240.453 217.225 238.036 217.225C237.894 220.197 237.766 222.882 237.609 226.152C255.079 226.152 271.991 226.152 289.403 226.152C289.912 233.598 288.834 240.47 285.429 246.208C280.204 255.014 273.818 263.136 267.837 271.485C265.762 274.382 263.577 274.539 260.226 272.549C250.222 266.608 239.961 261.083 229.65 255.681C225.167 253.332 220.311 252.476 215.199 254.28C213.958 254.718 211.715 254.443 210.877 253.579C195.256 237.485 177.841 223.086 165.14 204.236C145.056 174.43 147.92 133.567 169.248 107.279C177.907 96.6058 188.739 92.0489 202.306 94.8641C210.742 96.6146 219.436 97.8575 227.396 100.931C233.713 103.369 239.557 107.692 244.796 112.138C259.745 124.824 274.266 138.016 288.982 150.978C296.091 157.239 303.306 163.38 310.358 169.704C311.543 170.766 312.139 172.486 312.291 174.073C301.784 174.245 291.993 174.245 282.203 174.245C281.914 174.854 281.624 175.462 281.335 176.07C288.212 182.529 295.089 188.987 301.966 195.445ZM223.328 143.143C230.142 150.724 238.634 145.457 246.55 146.469C243.141 141.578 240.032 135.487 235.419 133.971C229.255 131.946 221.925 133.471 215.095 133.471C214.911 133.941 214.727 134.411 214.543 134.881C217.3 137.464 220.056 140.047 223.328 143.143Z" fill="#F6C87F"/>
<path d="M435.503 93.8374C433.143 94.7386 431.146 95.4997 428.6 96.4703C423.095 81.931 421.035 67.2482 422.001 51.1777C426.06 52.8295 429.754 53.8845 432.988 55.7405C440.189 59.873 447.234 64.2935 454.198 68.8192C458.259 71.4584 460.166 82.3758 457.378 86.3046C456.813 87.1003 455.43 87.3952 454.366 87.7433C448.209 89.7574 442.035 91.7183 435.503 93.8374Z" fill="#279570"/>
<path d="M156.935 105.411C151.448 116.294 146.198 126.9 140.907 137.588C128.036 132.524 118.146 115.246 125.114 103.248C132.994 89.6809 148.685 89.4293 158.658 96.9617C163.176 100.374 158.387 102.528 156.935 105.411Z" fill="#F6C87F"/>
<path d="M302.205 195.192C295.088 188.987 288.211 182.529 281.334 176.07C281.623 175.462 281.913 174.854 282.202 174.245C291.993 174.245 301.783 174.245 312.021 174.238C309.127 181.134 305.786 188.037 302.205 195.192Z" fill="#279570"/>
<path d="M132.557 316.921C132.127 316.926 131.518 316.659 130.787 316.064C131.236 316.04 131.807 316.345 132.557 316.921Z" fill="#FEFFFF"/>
<path d="M223.069 142.886C220.055 140.047 217.298 137.464 214.541 134.881C214.725 134.411 214.909 133.941 215.094 133.47C221.923 133.47 229.253 131.946 235.417 133.971C240.03 135.487 243.14 141.578 246.549 146.468C238.632 145.456 230.14 150.724 223.069 142.886Z" fill="#279570"/>
</svg>
